<?xml version="1.0" encoding="UTF-8" standalone="no"?>
<!DOCTYPE svg PUBLIC "-//W3C//DTD SVG 1.1//EN" "http://www.w3.org/Graphics/SVG/1.1/DTD/svg11.dtd">
<svg xmlns="http://www.w3.org/2000/svg" version="1.1" viewBox="0 0 591 131">
<path stroke="#1f7297" stroke-width="2.00" fill="none" stroke-linecap="butt" vector-effect="non-scaling-stroke" d="
  M 332.04 88.00
  L 331.75 90.71"
/>
<path fill="#05aaf4" d="
  M 332.04 88.00
  L 331.75 90.71
  C 328.12 92.35 324.23 87.84 322.06 85.44
  Q 308.52 70.36 294.97 55.28
  C 289.26 48.93 287.95 44.92 294.02 38.05
  Q 306.80 23.57 319.66 9.15
  C 323.10 5.29 325.18 2.19 330.58 0.92
  Q 331.23 0.77 331.23 1.43
  Q 331.28 40.89 331.31 80.23
  Q 331.31 84.18 332.04 88.00
  Z"
/>
<path fill="#393939" d="
  M 234.98 12.47
  C 239.40 5.02 246.29 11.71 241.07 15.82
  Q 235.60 20.13 229.90 24.30
  A 0.83 0.82 86.9 0 1 228.70 23.22
  Q 231.74 17.93 234.98 12.47
  Z"
/>
<path fill="#393939" d="
  M 332.15 85.53
  L 342.37 9.59
  A 0.42 0.42 0.0 0 1 343.10 9.37
  L 351.99 19.54
  A 1.28 1.27 32.9 0 1 352.25 20.74
  Q 343.15 51.11 334.01 81.41
  C 333.62 82.73 333.40 84.35 332.46 85.66
  A 0.17 0.17 0.0 0 1 332.15 85.53
  Z"
/>
<path fill="#393939" d="
  M 587.31 14.84
  Q 587.19 38.32 587.27 60.62
  C 587.28 62.81 588.33 63.82 590.24 64.46
  Q 590.75 64.64 590.77 65.17
  C 590.82 66.54 575.86 66.00 574.06 65.99
  Q 573.27 65.99 573.62 65.28
  L 573.83 64.86
  Q 574.03 64.45 574.45 64.29
  Q 577.18 63.22 577.22 60.19
  Q 577.32 51.34 577.24 22.54
  C 577.23 19.89 575.86 19.01 573.56 18.38
  A 0.58 0.58 0.0 0 1 573.57 17.26
  L 586.31 14.05
  Q 587.32 13.80 587.31 14.84
  Z"
/>
<ellipse fill="#393939" cx="0.00" cy="0.00" transform="translate(437.66,19.87) rotate(0.8)" rx="5.76" ry="5.32"/>
<ellipse fill="#393939" cx="0.00" cy="0.00" transform="translate(497.03,19.88) rotate(0.7)" rx="5.73" ry="5.29"/>
<path fill="#393939" d="
  M 8.90 62.97
  L 11.90 64.68
  A 0.74 0.73 -28.9 0 1 11.50 66.05
  L 3.49 65.70
  Q 3.01 65.67 2.56 65.85
  Q 1.58 66.22 0.71 65.50
  A 0.56 0.56 0.0 0 1 0.96 64.52
  C 4.33 63.84 6.00 62.25 7.16 58.87
  Q 14.27 38.24 21.36 17.60
  Q 21.57 17.00 22.21 17.00
  L 27.20 17.00
  Q 27.76 17.00 27.94 17.53
  Q 35.12 38.70 42.42 59.80
  Q 43.17 61.98 44.03 62.87
  C 44.78 63.65 48.31 64.50 47.58 65.64
  A 0.84 0.81 15.7 0 1 46.88 66.02
  L 28.83 65.95
  Q 27.79 65.95 28.50 65.18
  Q 29.53 64.07 30.99 63.54
  A 1.75 1.75 0.0 0 0 32.08 61.37
  L 28.76 50.78
  Q 28.61 50.29 28.10 50.28
  L 12.65 50.02
  Q 12.07 50.01 11.89 50.57
  L 8.37 61.61
  A 1.17 1.17 0.0 0 0 8.90 62.97
  Z
  M 12.91 47.75
  A 0.32 0.32 0.0 0 0 13.21 48.18
  L 27.45 48.32
  A 0.32 0.32 0.0 0 0 27.76 47.91
  L 20.86 26.66
  A 0.32 0.32 0.0 0 0 20.25 26.65
  L 12.91 47.75
  Z"
/>
<path fill="#393939" d="
  M 384.17 62.71
  Q 384.90 60.87 384.93 59.18
  Q 385.30 34.23 384.74 21.99
  C 384.60 18.94 380.61 19.22 380.75 17.56
  A 0.64 0.63 -85.9 0 1 381.42 16.97
  C 390.92 17.60 401.05 16.22 409.61 18.34
  C 430.58 23.53 431.44 55.16 412.27 63.57
  C 404.48 66.99 390.93 66.19 381.34 65.93
  A 0.64 0.64 0.0 0 1 381.06 64.72
  L 383.53 63.43
  Q 383.99 63.19 384.17 62.71
  Z
  M 413.44 53.43
  C 415.44 46.24 415.63 30.25 410.56 23.85
  C 407.23 19.65 401.30 18.83 396.28 19.37
  Q 395.65 19.43 395.64 20.07
  L 395.44 63.15
  Q 395.44 63.83 396.12 63.88
  Q 410.30 64.74 413.44 53.43
  Z"
/>
<path fill="#393939" d="
  M 523.50 30.50
  L 530.91 30.50
  Q 531.59 30.50 531.52 31.17
  L 531.42 32.11
  Q 531.36 32.75 530.72 32.75
  L 523.44 32.75
  Q 522.87 32.75 522.86 33.32
  Q 522.44 49.07 523.02 58.98
  C 523.39 65.12 528.85 63.28 532.08 60.95
  A 0.52 0.52 0.0 0 1 532.85 61.61
  C 529.13 68.78 516.48 68.75 513.68 61.64
  Q 512.68 59.07 512.92 50.31
  Q 513.15 41.76 512.94 33.23
  Q 512.93 32.76 512.45 32.76
  L 508.39 32.74
  Q 507.78 32.74 507.73 32.13
  Q 507.67 31.29 508.57 31.14
  C 515.22 30.04 517.29 25.07 521.03 20.34
  A 1.10 1.10 0.0 0 1 523.00 21.02
  L 523.00 30.00
  Q 523.00 30.50 523.50 30.50
  Z"
/>
<path fill="#393939" d="
  M 331.75 90.71
  L 332.04 88.00
  Q 333.03 87.28 333.59 86.07
  Q 346.79 57.45 359.76 28.64
  Q 360.00 28.11 360.39 28.55
  Q 363.82 32.40 367.20 36.22
  C 372.63 42.34 375.19 46.93 369.18 53.69
  Q 355.30 69.27 341.28 84.74
  C 337.77 88.61 336.38 90.85 331.75 90.71
  Z"
/>
<path fill="#393939" d="
  M 457.01 52.41
  Q 456.78 54.50 457.85 56.24
  Q 458.16 56.75 458.74 56.85
  Q 465.70 58.07 472.56 59.55
  C 479.29 61.00 487.48 63.31 484.66 72.59
  C 481.22 83.93 459.88 85.93 451.86 79.87
  C 446.24 75.62 449.95 68.71 454.56 65.65
  A 0.69 0.68 41.9 0 0 454.49 64.47
  C 447.69 60.98 452.28 55.53 455.58 51.73
  Q 455.96 51.29 455.50 50.93
  C 448.22 45.16 448.92 34.14 458.25 30.73
  Q 467.66 27.31 476.41 32.67
  Q 476.90 32.97 477.42 32.74
  L 485.21 29.44
  Q 485.70 29.24 485.72 29.77
  L 485.83 33.61
  Q 485.85 34.25 485.21 34.25
  L 478.69 34.25
  Q 477.98 34.25 478.30 34.88
  C 486.05 50.13 469.07 56.06 457.70 51.98
  Q 457.08 51.75 457.01 52.41
  Z
  M 465.3338 51.5294
  A 10.14 5.98 90.6 0 0 471.4197 41.4526
  A 10.14 5.98 90.6 0 0 465.5462 31.2506
  A 10.14 5.98 90.6 0 0 459.4603 41.3274
  A 10.14 5.98 90.6 0 0 465.3338 51.5294
  Z
  M 457.14 65.78
  C 446.88 80.41 469.67 84.62 476.16 77.11
  C 478.88 73.97 477.81 69.63 473.46 68.68
  Q 465.60 66.98 457.72 65.54
  A 0.59 0.57 -66.4 0 0 457.14 65.78
  Z"
/>
<path fill="#393939" d="
  M 62.31 64.97
  C 66.26 65.54 71.08 63.56 70.78 58.94
  C 70.33 51.85 56.87 52.93 52.75 46.34
  C 49.21 40.69 51.93 33.49 58.02 31.09
  Q 65.23 28.24 73.51 30.79
  C 77.54 32.03 76.06 35.86 75.93 39.17
  Q 75.91 39.65 75.46 39.85
  C 73.31 40.77 70.93 33.79 68.81 32.39
  C 62.84 28.42 52.93 37.34 63.33 42.07
  C 67.01 43.74 71.47 44.57 74.79 47.11
  C 79.56 50.76 80.50 57.42 76.65 62.16
  C 71.44 68.55 58.65 67.29 51.95 64.74
  A 1.05 1.05 0.0 0 1 51.27 63.77
  L 51.24 56.37
  A 1.20 1.20 0.0 0 1 53.54 55.87
  C 55.39 60.00 57.44 64.27 62.31 64.97
  Z"
/>
<path fill="#393939" d="
  M 106.33 61.82
  Q 110.91 61.10 114.60 57.72
  A 0.59 0.58 82.9 0 1 115.51 58.43
  C 109.63 69.32 93.62 69.70 86.60 60.46
  C 75.99 46.51 89.12 24.35 106.60 30.40
  C 113.74 32.87 116.51 39.39 115.80 46.59
  Q 115.69 47.75 114.53 47.75
  L 93.99 47.75
  A 0.65 0.64 -1.3 0 0 93.34 48.42
  C 93.72 56.66 96.81 63.33 106.33 61.82
  Z
  M 102.41 31.91
  C 94.46 29.93 93.45 39.65 93.35 45.11
  A 0.63 0.63 0.0 0 0 93.98 45.75
  L 106.01 45.75
  Q 106.56 45.75 106.62 45.20
  C 107.05 41.18 107.74 33.23 102.41 31.91
  Z"
/>
<path fill="#393939" d="
  M 129.62 64.30
  C 133.12 65.84 138.62 64.99 140.14 61.03
  C 142.90 53.82 130.27 52.29 126.19 49.90
  C 117.52 44.84 119.69 33.40 128.78 30.62
  Q 137.26 28.03 145.25 31.63
  Q 145.88 31.91 145.83 32.60
  L 145.40 39.45
  A 1.09 1.08 -55.6 0 1 143.33 39.84
  C 141.23 35.28 138.75 29.74 132.42 31.90
  C 125.07 34.41 128.72 40.50 134.02 42.56
  C 140.55 45.08 148.83 46.83 148.53 55.89
  C 148.10 68.87 129.35 68.05 121.20 64.42
  Q 120.75 64.22 120.75 63.72
  L 120.76 56.07
  A 0.79 0.78 89.3 0 1 121.52 55.28
  C 123.36 55.22 126.34 62.86 129.62 64.30
  Z"
/>
<path fill="#393939" d="
  M 170.2574 67.1665
  A 18.89 18.39 91.1 0 1 152.2334 47.9270
  A 18.89 18.39 91.1 0 1 170.9826 29.3935
  A 18.89 18.39 91.1 0 1 189.0066 48.6330
  A 18.89 18.39 91.1 0 1 170.2574 67.1665
  Z
  M 177.25 38.00
  C 176.01 29.60 165.88 29.14 164.05 37.55
  C 163.25 41.21 161.50 62.32 167.54 64.20
  Q 175.68 66.72 177.20 58.94
  Q 179.00 49.72 177.25 38.00
  Z"
/>
<path fill="#393939" d="
  M 206.39 36.17
  Q 209.52 32.70 210.70 31.72
  C 213.98 28.97 220.30 27.89 221.72 33.26
  C 223.81 41.20 214.93 40.56 211.37 36.30
  A 1.29 1.29 0.0 0 0 209.55 36.13
  C 207.40 37.92 206.02 39.73 206.01 42.75
  Q 205.98 52.00 206.01 61.30
  A 2.14 2.14 0.0 0 0 207.20 63.22
  L 210.51 64.88
  A 0.59 0.59 0.0 0 1 210.24 66.00
  L 192.79 66.00
  A 0.57 0.57 0.0 0 1 192.27 65.19
  C 193.06 63.51 195.99 64.20 195.99 61.25
  Q 196.01 50.71 196.00 40.17
  C 195.99 37.25 195.57 35.36 192.44 34.93
  A 0.61 0.61 0.0 0 1 192.32 33.75
  L 204.26 29.48
  A 0.72 0.71 -12.7 0 1 205.22 30.08
  L 205.80 35.98
  Q 205.88 36.74 206.39 36.17
  Z"
/>
<path fill="#393939" d="
  M 241.58 64.88
  A 0.62 0.62 0.0 0 1 241.22 66.01
  L 225.25 65.97
  Q 224.68 65.97 224.54 65.42
  Q 224.37 64.72 225.05 64.52
  C 227.75 63.72 228.22 62.46 228.23 59.65
  Q 228.26 49.77 228.26 39.90
  C 228.26 36.85 227.25 35.55 224.53 34.56
  Q 223.35 34.12 224.55 33.74
  L 237.76 29.52
  Q 238.44 29.31 238.45 30.02
  Q 238.61 44.92 238.48 59.66
  C 238.45 62.55 239.38 63.36 241.58 64.88
  Z"
/>
<path fill="#393939" d="
  M 265.96 61.98
  C 264.61 63.23 263.26 64.62 261.76 65.44
  C 256.60 68.24 247.92 67.03 246.25 60.66
  C 243.29 49.43 258.33 46.86 265.50 45.90
  Q 266.01 45.83 266.07 45.32
  C 266.58 41.33 267.18 32.87 262.23 31.76
  C 253.85 29.89 259.35 44.83 250.53 42.55
  C 245.85 41.34 247.05 34.89 250.50 32.77
  C 258.55 27.81 276.03 27.25 275.96 40.81
  Q 275.90 50.89 276.20 60.96
  Q 276.22 61.55 276.72 61.86
  Q 278.55 62.98 280.76 62.73
  A 0.61 0.61 0.0 0 1 281.28 63.75
  C 277.26 67.98 269.50 68.58 266.84 62.17
  Q 266.54 61.44 265.96 61.98
  Z
  M 265.69 47.70
  C 258.49 47.73 252.65 53.64 256.63 60.83
  Q 256.88 61.29 257.37 61.49
  Q 262.06 63.39 265.86 59.68
  Q 266.25 59.29 266.25 58.74
  L 266.25 48.26
  Q 266.25 47.70 265.69 47.70
  Z"
/>
<path fill="#393939" d="
  M 442.79 61.25
  C 442.82 63.14 444.97 64.03 446.12 65.14
  A 0.49 0.49 0.0 0 1 445.78 65.98
  C 444.03 65.99 428.98 66.41 429.02 65.39
  Q 429.04 64.88 429.51 64.71
  C 431.59 63.98 432.75 62.91 432.75 60.50
  Q 432.75 49.83 432.75 39.19
  C 432.76 36.71 431.67 35.51 429.39 34.93
  A 0.72 0.72 0.0 0 1 429.35 33.55
  L 441.47 29.67
  Q 442.99 29.19 442.95 30.78
  Q 442.59 46.05 442.79 61.25
  Z"
/>
<path fill="#393939" d="
  M 492.19 61.19
  Q 492.31 50.47 492.38 39.74
  Q 492.40 35.68 488.73 34.81
  A 0.61 0.61 0.0 0 1 488.69 33.64
  L 501.61 29.46
  A 0.49 0.49 0.0 0 1 502.25 29.92
  Q 502.25 45.27 502.26 60.54
  C 502.26 62.73 503.39 63.96 505.22 64.78
  A 0.64 0.64 0.0 0 1 504.96 66.00
  L 488.89 66.00
  A 0.45 0.45 0.0 0 1 488.50 65.32
  L 488.83 64.76
  Q 489.09 64.31 489.60 64.20
  Q 492.16 63.65 492.19 61.19
  Z"
/>
<path fill="#393939" d="
  M 555.43 34.06
  C 554.08 31.48 550.62 30.45 548.54 32.82
  C 546.14 35.56 547.47 41.10 543.73 42.45
  C 541.22 43.35 538.34 42.17 537.77 39.42
  C 535.50 28.41 565.51 23.40 566.02 40.57
  Q 566.29 49.69 566.26 58.83
  C 566.25 62.01 567.65 63.02 570.71 62.71
  A 0.73 0.72 -74.9 0 1 571.37 63.86
  C 567.73 68.88 559.51 67.76 556.91 62.13
  Q 556.65 61.56 556.19 62.00
  C 552.14 65.84 548.24 68.16 542.63 66.44
  C 538.32 65.11 535.22 61.37 536.24 56.73
  C 538.02 48.70 548.87 46.34 555.84 46.02
  Q 556.40 45.99 556.43 45.44
  C 556.64 42.10 556.97 36.99 555.43 34.06
  Z
  M 555.89 47.63
  C 541.48 47.93 542.73 68.73 556.07 59.86
  Q 556.50 59.57 556.50 59.06
  L 556.50 48.24
  Q 556.50 47.62 555.89 47.63
  Z"
/>
<path fill="#393939" d="
  M 118.86 125.54
  C 121.21 127.94 126.10 128.99 128.20 125.93
  C 132.57 119.58 114.61 119.96 118.11 111.73
  C 121.29 104.24 132.64 109.64 129.83 111.53
  Q 129.46 111.78 129.05 111.61
  C 126.10 110.43 122.69 108.60 120.53 112.03
  C 118.08 115.92 128.41 118.25 130.31 120.46
  C 133.01 123.58 130.79 128.47 126.75 129.44
  Q 121.30 130.77 117.19 127.35
  Q 116.62 126.88 117.14 126.35
  L 117.94 125.54
  Q 118.40 125.07 118.86 125.54
  Z"
/>
<path fill="#393939" d="
  M 281.77 113.39
  C 282.25 106.81 289.97 106.69 294.22 110.06
  Q 294.62 110.37 294.43 110.84
  C 294.03 111.87 293.25 111.91 292.34 111.35
  C 289.69 109.68 283.09 109.51 284.48 114.45
  Q 284.61 114.93 285.03 115.20
  C 288.80 117.64 297.69 119.34 294.89 126.03
  C 292.61 131.49 285.00 130.48 281.25 127.35
  Q 280.87 127.04 281.00 126.57
  C 281.35 125.26 282.20 125.19 283.19 125.94
  C 289.77 130.93 296.84 123.67 290.17 120.87
  C 286.97 119.53 281.47 117.57 281.77 113.39
  Z"
/>
<path fill="#393939" d="
  M 461.61 112.96
  C 462.59 106.66 470.12 106.75 474.20 110.13
  Q 474.54 110.41 474.30 110.78
  L 473.74 111.66
  Q 473.43 112.14 472.95 111.82
  C 470.51 110.21 465.63 108.92 464.29 112.54
  C 463.11 115.74 471.01 118.41 473.28 119.50
  Q 473.75 119.73 474.01 120.18
  C 476.96 125.26 473.89 129.53 468.55 129.88
  C 467.04 129.98 459.15 128.83 461.35 125.56
  A 0.74 0.74 0.0 0 1 462.45 125.42
  C 464.82 127.57 470.95 129.48 472.48 125.32
  C 474.63 119.43 460.47 120.18 461.61 112.96
  Z"
/>
<path fill="#393939" d="
  M 143.6126 129.9097
  A 11.09 9.30 90.4 0 1 134.3902 118.7551
  A 11.09 9.30 90.4 0 1 143.7674 107.7303
  A 11.09 9.30 90.4 0 1 152.9898 118.8849
  A 11.09 9.30 90.4 0 1 143.6126 129.9097
  Z
  M 143.7664 127.7599
  A 8.86 6.48 89.7 0 0 150.1999 118.8661
  A 8.86 6.48 89.7 0 0 143.6736 110.0401
  A 8.86 6.48 89.7 0 0 137.2401 118.9339
  A 8.86 6.48 89.7 0 0 143.7664 127.7599
  Z"
/>
<path fill="#393939" d="
  M 180.62 127.57
  C 185.67 127.39 185.34 123.15 185.45 118.85
  Q 185.58 113.93 185.47 108.98
  Q 185.45 108.25 186.19 108.25
  L 187.29 108.25
  Q 187.98 108.25 187.98 108.93
  C 188.04 114.03 188.91 122.84 186.64 126.80
  C 183.71 131.90 173.82 131.03 173.04 123.66
  Q 172.24 116.15 172.54 108.78
  Q 172.57 108.11 173.23 108.13
  L 174.65 108.19
  Q 175.28 108.22 175.27 108.85
  C 175.22 113.59 172.85 127.86 180.62 127.57
  Z"
/>
<path fill="#393939" d="
  M 195.35 118.88
  C 195.13 124.73 200.97 131.09 206.72 125.85
  A 0.86 0.86 0.0 0 1 208.10 126.19
  Q 208.58 127.51 206.87 128.40
  C 188.46 137.99 187.90 100.62 206.48 109.05
  Q 207.72 109.61 207.81 110.98
  A 0.79 0.79 0.0 0 1 206.63 111.73
  C 199.71 107.86 195.60 112.39 195.35 118.88
  Z"
/>
<path fill="#393939" d="
  M 229.3923 129.9697
  A 11.13 9.45 90.4 0 1 220.0202 118.7740
  A 11.13 9.45 90.4 0 1 229.5477 107.7103
  A 11.13 9.45 90.4 0 1 238.9198 118.9060
  A 11.13 9.45 90.4 0 1 229.3923 129.9697
  Z
  M 229.4500 127.7900
  A 8.89 6.61 90.0 0 0 236.0600 118.9000
  A 8.89 6.61 90.0 0 0 229.4500 110.0100
  A 8.89 6.61 90.0 0 0 222.8400 118.9000
  A 8.89 6.61 90.0 0 0 229.4500 127.7900
  Z"
/>
<path fill="#393939" d="
  M 256.45 125.20
  L 256.18 108.95
  Q 256.17 108.25 256.87 108.25
  L 258.00 108.25
  Q 258.75 108.25 258.75 109.00
  L 258.75 128.52
  A 1.56 1.56 0.0 0 1 255.84 129.30
  L 246.07 112.35
  A 0.14 0.13 -62.0 0 0 245.82 112.43
  C 245.90 114.64 246.72 129.28 245.12 129.78
  Q 243.47 130.30 243.48 128.57
  L 243.55 109.51
  A 1.62 1.62 0.0 0 1 246.58 108.72
  L 255.96 125.33
  A 0.26 0.26 0.0 0 0 256.45 125.20
  Z"
/>
<rect fill="#423f46" x="-1.29" y="-10.80" transform="translate(307.79,118.90) rotate(0.4)" width="2.58" height="21.60" rx="0.85"/>
<path fill="#393939" d="
  M 380.73 129.68
  C 362.37 130.26 370.06 99.79 385.33 109.71
  Q 385.79 110.00 385.76 110.54
  L 385.72 111.36
  A 0.65 0.64 -71.2 0 1 384.71 111.86
  C 372.03 103.12 367.01 129.59 382.35 127.40
  Q 384.00 127.17 384.00 125.50
  L 384.00 121.42
  Q 384.00 120.77 383.35 120.76
  L 380.12 120.74
  Q 379.50 120.74 379.50 120.12
  L 379.50 119.15
  Q 379.50 118.56 380.10 118.54
  L 385.86 118.41
  Q 386.49 118.39 386.49 119.02
  C 386.53 124.11 388.18 129.45 380.73 129.68
  Z"
/>
<path fill="#423f46" d="
  M 447.18 119.98
  L 447.47 127.06
  A 0.46 0.46 0.0 0 0 447.93 127.50
  L 457.04 127.50
  A 0.46 0.46 0.0 0 1 457.50 127.96
  L 457.50 129.29
  A 0.46 0.46 0.0 0 1 457.04 129.75
  L 445.21 129.75
  A 0.46 0.46 0.0 0 1 444.75 129.29
  L 444.75 108.67
  A 0.46 0.46 0.0 0 1 445.21 108.21
  L 456.54 108.27
  A 0.46 0.46 0.0 0 1 457.00 108.73
  L 457.00 110.04
  A 0.46 0.46 0.0 0 1 456.54 110.50
  L 447.70 110.50
  A 0.46 0.46 0.0 0 0 447.24 110.96
  L 447.26 116.79
  A 0.46 0.46 0.0 0 0 447.72 117.25
  L 455.35 117.25
  A 0.46 0.46 0.0 0 1 455.80 117.80
  L 455.53 119.13
  A 0.46 0.46 0.0 0 1 455.08 119.50
  L 447.64 119.50
  A 0.46 0.46 0.0 0 0 447.18 119.98
  Z"
/>
<path fill="#393939" d="
  M 160.69 127.50
  L 169.56 127.50
  A 0.44 0.44 0.0 0 1 170.00 127.94
  L 170.00 129.14
  A 0.44 0.44 0.0 0 1 169.57 129.58
  L 158.22 129.82
  A 0.44 0.44 0.0 0 1 157.77 129.38
  L 157.66 108.70
  A 0.44 0.44 0.0 0 1 158.10 108.26
  L 159.81 108.26
  A 0.44 0.44 0.0 0 1 160.25 108.70
  L 160.25 127.06
  A 0.44 0.44 0.0 0 0 160.69 127.50
  Z"
/>
<rect fill="#423f46" x="212.74" y="108.24" width="2.72" height="21.50" rx="0.72"/>
<path fill="#423f46" d="
  M 267.50 119.94
  L 267.50 127.06
  A 0.44 0.44 0.0 0 0 267.94 127.50
  L 277.06 127.50
  A 0.44 0.44 0.0 0 1 277.50 127.94
  L 277.50 129.14
  A 0.44 0.44 0.0 0 1 277.07 129.58
  L 265.20 129.80
  A 0.44 0.44 0.0 0 1 264.75 129.36
  L 264.75 108.69
  A 0.44 0.44 0.0 0 1 265.19 108.25
  L 276.82 108.25
  A 0.44 0.44 0.0 0 1 277.26 108.71
  L 277.22 110.08
  A 0.44 0.44 0.0 0 1 276.78 110.50
  L 267.94 110.50
  A 0.44 0.44 0.0 0 0 267.50 110.94
  L 267.50 116.81
  A 0.44 0.44 0.0 0 0 267.94 117.25
  L 275.37 117.25
  A 0.44 0.44 0.0 0 1 275.80 117.78
  L 275.53 119.15
  A 0.44 0.44 0.0 0 1 275.10 119.50
  L 267.94 119.50
  A 0.44 0.44 0.0 0 0 267.50 119.94
  Z"
/>
<path fill="#423f46" d="
  M 327.46 125.18
  A 0.29 0.29 0.0 0 0 328.00 125.04
  L 327.67 108.92
  Q 327.65 108.25 328.33 108.25
  L 329.64 108.25
  Q 330.27 108.25 330.27 108.89
  L 330.24 128.52
  A 1.56 1.56 0.0 0 1 327.33 129.29
  L 317.84 112.65
  A 0.17 0.17 0.0 0 0 317.53 112.73
  L 317.56 129.08
  Q 317.56 129.79 316.85 129.75
  L 315.66 129.68
  Q 315.00 129.65 315.00 128.98
  L 315.00 109.41
  A 1.65 1.65 0.0 0 1 318.09 108.60
  L 327.46 125.18
  Z"
/>
<path fill="#423f46" d="
  M 334.82 108.25
  L 349.81 108.25
  A 0.47 0.47 0.0 0 1 350.27 108.83
  L 349.96 110.14
  A 0.47 0.47 0.0 0 1 349.51 110.50
  L 343.97 110.50
  A 0.47 0.47 0.0 0 0 343.50 110.97
  L 343.50 129.13
  A 0.47 0.47 0.0 0 1 343.08 129.59
  L 341.27 129.79
  A 0.47 0.47 0.0 0 1 340.75 129.32
  L 340.75 110.97
  A 0.47 0.47 0.0 0 0 340.28 110.50
  L 334.94 110.50
  A 0.47 0.47 0.0 0 1 334.47 110.07
  L 334.36 108.76
  A 0.47 0.47 0.0 0 1 334.82 108.25
  Z"
/>
<path fill="#423f46" d="
  M 357.18 127.50
  L 366.32 127.50
  A 0.43 0.43 0.0 0 1 366.75 127.93
  L 366.75 129.06
  A 0.43 0.43 0.0 0 1 366.33 129.49
  L 354.44 129.84
  A 0.43 0.43 0.0 0 1 354.00 129.41
  L 354.00 108.68
  A 0.43 0.43 0.0 0 1 354.43 108.25
  L 365.98 108.25
  A 0.43 0.43 0.0 0 1 366.41 108.75
  L 366.18 110.14
  A 0.43 0.43 0.0 0 1 365.75 110.50
  L 357.08 110.50
  A 0.43 0.43 0.0 0 0 356.65 110.94
  L 356.80 116.83
  A 0.43 0.43 0.0 0 0 357.23 117.25
  L 364.57 117.25
  A 0.43 0.43 0.0 0 1 365.00 117.68
  L 365.00 119.07
  A 0.43 0.43 0.0 0 1 364.57 119.50
  L 357.18 119.50
  A 0.43 0.43 0.0 0 0 356.75 119.93
  L 356.75 127.07
  A 0.43 0.43 0.0 0 0 357.18 127.50
  Z"
/>
<path fill="#423f46" d="
  M 394.25 121.25
  L 394.25 129.13
  Q 394.25 129.69 393.68 129.69
  L 392.44 129.69
  Q 391.75 129.69 391.75 129.00
  L 391.75 108.76
  Q 391.75 108.29 392.23 108.28
  C 396.16 108.19 403.45 107.09 405.40 111.72
  Q 407.73 117.26 401.90 119.83
  A 0.76 0.76 0.0 0 0 401.54 120.90
  L 406.09 128.96
  Q 406.31 129.34 405.91 129.52
  C 402.94 130.88 399.77 123.17 398.58 121.00
  Q 398.30 120.50 397.73 120.50
  L 395.00 120.50
  Q 394.25 120.50 394.25 121.25
  Z
  M 395.26 118.50
  C 406.27 119.08 406.07 108.74 394.79 110.31
  Q 394.14 110.40 394.18 111.06
  L 394.51 117.75
  Q 394.55 118.46 395.26 118.50
  Z"
/>
<path fill="#393939" d="
  M 414.54 110.01
  C 415.20 108.21 416.05 107.56 417.91 108.39
  Q 418.37 108.59 418.53 109.07
  L 425.21 128.84
  Q 425.41 129.42 424.85 129.66
  C 422.00 130.86 421.30 125.22 420.65 123.46
  Q 420.47 123.00 419.98 123.00
  L 413.24 123.00
  Q 412.72 123.00 412.51 123.47
  C 411.74 125.18 410.82 130.79 408.22 129.68
  Q 407.73 129.47 407.90 128.96
  Q 411.10 119.43 414.54 110.01
  Z
  M 413.59 120.58
  A 0.33 0.33 0.0 0 0 413.91 121.01
  L 419.46 120.99
  A 0.33 0.33 0.0 0 0 419.77 120.56
  L 416.96 111.37
  A 0.33 0.33 0.0 0 0 416.33 111.37
  L 413.59 120.58
  Z"
/>
<path fill="#423f46" d="
  M 431.21 108.76
  L 431.47 126.73
  Q 431.48 127.48 432.24 127.50
  C 434.07 127.54 440.45 126.75 440.88 128.59
  A 0.95 0.94 83.4 0 1 439.96 129.75
  L 429.50 129.75
  Q 428.75 129.75 428.75 129.00
  L 428.75 109.00
  Q 428.75 108.25 429.50 108.25
  L 430.69 108.25
  Q 431.20 108.25 431.21 108.76
  Z"
/>
<rect fill="#010001" x="-46.81" y="-1.17" transform="translate(530.35,118.91) rotate(-0.1)" width="93.62" height="2.34" rx="0.50"/>
<rect fill="#010001" x="14.52" y="117.77" width="93.70" height="2.26" rx="0.51"/>
</svg>
