<?xml version="1.0" encoding="UTF-8" standalone="no"?>
<!DOCTYPE svg PUBLIC "-//W3C//DTD SVG 1.1//EN" "http://www.w3.org/Graphics/SVG/1.1/DTD/svg11.dtd">
<svg xmlns="http://www.w3.org/2000/svg" version="1.1" viewBox="0 0 93 92">
<path stroke="#1e7095" stroke-width="2.00" fill="none" stroke-linecap="butt" vector-effect="non-scaling-stroke" d="
  M 43.00 88.71
  L 42.75 90.71"
/>
<path fill="#05aaf4" d="
  M 43.00 88.71
  L 42.75 90.71
  C 37.84 92.55 32.08 84.22 29.23 81.11
  Q 16.65 67.39 4.42 53.35
  C 0.45 48.79 -0.42 44.15 3.73 39.48
  Q 27.36 12.92 33.91 5.42
  Q 37.15 1.71 41.66 0.99
  Q 42.24 0.90 42.24 1.49
  Q 42.27 39.77 42.24 77.99
  Q 42.24 82.55 43.00 88.71
  Z"
/>
<path fill="#363636" d="
  M 53.95 9.22
  L 63.34 19.93
  A 0.32 0.32 0.0 0 1 63.41 20.23
  L 43.81 85.44
  A 0.32 0.32 0.0 0 1 43.19 85.30
  L 53.40 9.39
  A 0.32 0.32 0.0 0 1 53.95 9.22
  Z"
/>
<path fill="#363636" d="
  M 42.75 90.71
  L 43.00 88.71
  C 43.63 87.16 44.68 85.80 45.30 84.46
  Q 58.15 56.63 70.77 28.67
  Q 70.98 28.20 71.33 28.58
  Q 75.93 33.54 80.27 38.66
  C 84.53 43.67 84.88 48.44 80.43 53.43
  Q 64.93 70.80 49.33 88.07
  Q 46.69 90.98 42.75 90.71
  Z"
/>
</svg>
